# xmcd CD database file
#
# Track frame offsets:
#	150
#	13510
#	29539
#	46516
#	66154
#	80889
#	95907
#	108823
#	126788
#	134000
#	148394
#	165425
#
# Disc length: 2479 seconds
#
# Revision: 0
# Processed by: cddbd v1.4PL0 Copyright (c) Steve Scherf et al.
# Submitted via: CDex 1.40Release
#
DISCID=a809ad0c
DTITLE=William Clarke - Now That You're Gone
DYEAR=2003
DGENRE=Blues
TTITLE0=Now That You're Gone
TTITLE1=Feel Like A King
TTITLE2=Love You, Yes I do
TTITLE3=Give Me Mine Now
TTITLE4=She's Gone
TTITLE5=When I Get Drunk
TTITLE6=Bite Again
TTITLE7=Can't You Hear Me Callin'
TTITLE8=Let's Celebrate Life
TTITLE9=She's Dynamite
TTITLE10=Find A New Place To Live
TTITLE11=Watson, I Presume
EXTD=YEAR: 2003 ID3G: 0
EXTT0=
EXTT1=
EXTT2=
EXTT3=
EXTT4=
EXTT5=
EXTT6=
EXTT7=
EXTT8=
EXTT9=
EXTT10=
EXTT11=
PLAYORDER=
